<svg width="256" height="290" viewBox="0 0 256 290" fill="none" xmlns="http://www.w3.org/2000/svg">
  <g clip-path="url(#clip0)">
    <path d="M127.844 289.088L23.6618 260.166L0.445312 -0.234375H255.555L232.314 260.125L127.844 289.088Z" fill="#00A300"/>
    <path d="M115.961 220.891C99.0611 220.891 85.0084 210.123 74.8778 196.284C63.5615 181.053 68.4857 156.297 85.5394 156.297C101.156 156.297 112.59 163.818 116.268 176.517C116.558 176.851 116.854 177.167 117.155 177.49C118.966 180.367 116.926 186.996 111.416 188.672C109.54 189.434 106.683 189.835 103.664 190.456C109.337 196.492 115.301 202.776 115.301 205.333C115.301 209.368 115.1 220.891 115.961 220.891Z" fill="white"/>
    <path d="M188.039 220.891C204.939 220.891 218.008 210.123 228.12 196.284C239.436 181.053 234.512 156.297 217.458 156.297C201.842 156.297 190.409 163.818 186.731 176.517C186.441 176.851 186.145 177.167 185.844 177.49C184.033 180.367 186.073 186.996 191.583 188.672C193.458 189.434 196.315 189.835 199.334 190.456C193.661 196.492 187.697 202.776 187.697 205.333C187.697 209.368 187.897 220.891 188.039 220.891Z" fill="white"/>
    <path d="M128 1.75C59.2388 1.75 0 67.5833 0 145.833C0 224.083 59.2388 290 128 290C196.761 290 256 224.083 256 145.833C256 67.5833 196.761 1.75 128 1.75Z" fill="#F9E0C4"/>
  </g>
  <defs>
    <clipPath id="clip0">
      <rect width="256" height="290" fill="white"/>
    </clipPath>
  </defs>
</svg>
