<svg width="256" height="290" viewBox="0 0 256 290" fill="none" xmlns="http://www.w3.org/2000/svg">
  <g clip-path="url(#clip0)">
    <path d="M127.844 289.088L23.6618 260.166L0.445312 -0.234375H255.555L232.314 260.125L127.844 289.088Z" fill="#F37626"/>
    <path d="M172.227 184.373C168.88 187.824 165.078 190.588 160.82 192.125C156.949 193.885 153.658 193.934 150.199 192.782C143.347 190.298 136.756 184.586 132.227 177.136C128.156 170.199 127.356 162.578 126.356 155.173C123.606 141.653 120.646 126.447 115.356 119.948C108.756 112.837 93.501 116.217 91.222 128.165C90.739 130.577 90.414 133.001 90.125 135.426C90.204 136.273 90.289 137.123 90.375 137.976C90.656 144.069 90.98 149.99 90.948 155.238C90.928 159.493 91.148 163.264 91.193 166.837C91.266 173.675 93.895 179.327 101.077 184.86C105.261 188.196 109.788 191.092 115.127 193.426C125.665 198.826 138.892 203.382 152.387 201.382C165.253 199.636 178.037 189.067 172.227 184.373Z" fill="white"/>
    <path d="M128 290C196.761 290 256 224.083 256 145.833C256 67.5833 196.761 1.75 128 1.75C59.2388 1.75 0 67.5833 0 145.833C0 224.083 59.2388 290 128 290Z" fill="#F9E0C4"/>
  </g>
  <defs>
    <clipPath id="clip0">
      <rect width="256" height="290" fill="white"/>
    </clipPath>
  </defs>
</svg>
