<svg width="256" height="290" viewBox="0 0 256 290" fill="none" xmlns="http://www.w3.org/2000/svg">
  <g clip-path="url(#clip0)">
    <path d="M127.844 289.088L23.6618 260.166L0.445312 -0.234375H255.555L232.314 260.125L127.844 289.088Z" fill="#007ACC"/>
    <path d="M162.428 207.121C176.008 207.121 185.563 195.769 185.563 183.779V114.182H149.371V183.779C149.371 195.769 158.926 207.121 162.428 207.121Z" fill="#FCA121"/>
    <path d="M107.547 207.121C121.126 207.121 130.681 195.769 130.681 183.779V114.182H94.4891V183.779C94.4891 195.769 104.044 207.121 107.547 207.121Z" fill="#FBAE1D"/>
    <path d="M52.143 207.121C65.7221 207.121 75.2771 195.769 75.2771 183.779V114.182H39.0851V183.779C39.0851 195.769 48.6401 207.121 52.143 207.121Z" fill="#F7D004"/>
    <path d="M215.822 207.121C229.402 207.121 239.386 195.769 239.386 183.779V114.182H203.194V183.779C203.194 195.769 212.557 207.121 215.822 207.121Z" fill="#F9D007"/>
  </g>
  <defs>
    <clipPath id="clip0">
      <rect width="256" height="290" fill="white"/>
    </clipPath>
  </defs>
</svg>
