<svg width="256" height="290" viewBox="0 0 256 290" fill="none" xmlns="http://www.w3.org/2000/svg">
  <g clip-path="url(#clip0)">
    <path d="M127.844 289.088L23.6618 260.166L0.445312 -0.234375H255.555L232.314 260.125L127.844 289.088Z" fill="#3D9970"/>
    <path d="M85.849 35.569C65.658 35.569 49.173 52.348 49.173 72.622C49.173 88.017 55.703 101.786 66.134 110.091C57.155 113.999 50.61 121.958 50.61 131.978C50.61 143.217 62.688 155.273 78.362 155.273H95.826C111.5 155.273 124.053 142.596 124.053 131.978C124.053 121.476 118.654 113.169 110.926 108.052C114.762 102.871 118.348 96.083 121.646 88.999C132.55 89.092 142.473 84.307 149.413 75.895C158.015 66.777 155.423 49.763 141.927 35.773C128.856 22.057 108.712 35.569 85.849 35.569Z" fill="#fff"/>
    <path d="M170.327 72.622C170.327 52.348 153.843 35.569 133.652 35.569C110.79 35.569 90.646 22.057 77.575 35.773C64.08 49.763 61.488 66.777 70.09 75.895C77.03 84.307 86.953 89.092 100.789 88.999C104.086 96.083 107.673 102.871 111.509 108.052C103.779 113.169 98.38 121.476 98.38 131.978C98.38 142.596 110.934 155.273 126.608 155.273H144.072C159.746 155.273 171.824 143.217 171.824 131.978C171.824 121.958 165.279 113.999 156.3 110.091C166.731 101.786 173.261 88.017 173.261 72.622C173.261 52.348 156.777 35.569 136.586 35.569C117.431 35.569 100.299 47.391 95.393 57.524C93.673 61.89 91.8 66.255 90.95 70.68C88.293 77.029 78.679 90.29 78.679 90.29C81.07 85.692 83.513 81.066 86.29 76.686C91.25 69.175 92.13 67.004 92.13 67.004C85.157 69.539 75.932 72.622 70.799 79.345C69.489 80.694 65.283 80.51 65.283 80.51C75.326 73.298 100.078 69.911 122.244 72.375C139.206 74.337 150.113 80.574 153.292 86.724C155.554 92.564 154.016 99.693 154.016 99.693C146.673 92.192 133.862 85.291 133.862 85.291C140.526 90.27 145.29 90.218 145.29 90.218C160.034 90.29 170.327 72.622 170.327 72.622Z" fill="#fff"/>
  </g>
  <defs>
    <clipPath id="clip0">
      <rect width="256" height="290" fill="white"/>
    </clipPath>
  </defs>
</svg>
