<svg width="256" height="290" viewBox="0 0 256 290" fill="none" xmlns="http://www.w3.org/2000/svg">
  <g clip-path="url(#clip0)">
    <path d="M127.844 289.088L23.6618 260.166L0.445312 -0.234375H255.555L232.314 260.125L127.844 289.088Z" fill="#F2C94C"/>
    <path d="M127.861 96.0451C127.861 83.5774 138.651 73.456 151.779 73.456C164.907 73.456 175.698 83.5774 175.698 96.0451C175.698 108.513 164.907 118.634 151.779 118.634C138.651 118.634 127.861 108.513 127.861 96.0451Z" fill="#E1A800"/>
    <path d="M100.154 122.056C100.154 112.365 108.152 104.295 119.299 104.295C130.445 104.295 138.444 112.365 138.444 122.056C138.444 131.747 130.445 139.816 119.299 139.816C108.152 139.816 100.154 131.747 100.154 122.056Z" fill="#E1A800"/>
    <path d="M73.4464 148.067C73.4464 138.375 81.4447 130.305 92.5915 130.305C103.738 130.305 111.736 138.375 111.736 148.067C111.736 157.758 103.738 165.827 92.5915 165.827C81.4447 165.827 73.4464 157.758 73.4464 148.067Z" fill="#E1A800"/>
    <path d="M126.524 196.158C126.524 184.691 137.315 174.57 150.442 174.57C163.57 174.57 174.36 184.691 174.36 196.158C174.36 207.625 163.57 217.746 150.442 217.746C137.315 217.746 126.524 207.625 126.524 196.158Z" fill="#E1A800"/>
  </g>
  <defs>
    <clipPath id="clip0">
      <rect width="256" height="290" fill="white"/>
    </clipPath>
  </defs>
</svg>
