<svg width="256" height="290" viewBox="0 0 256 290" fill="none" xmlns="http://www.w3.org/2000/svg">
  <g clip-path="url(#clip0)">
    <path d="M127.844 289.088L23.6618 260.166L0.445312 -0.234375H255.555L232.314 260.125L127.844 289.088Z" fill="#F7931E"/>
    <path d="M95.5863 145.276L126.189 118.536C131.478 113.697 136.866 108.849 142.154 104.009C150.762 95.6911 154.476 90.144 158.228 83.754C165.646 72.2394 155.374 64.4134 143.267 67.7886C130.041 71.1794 126.751 75.962 114.775 87.703C105.854 96.411 97.8022 104.205 95.5863 145.276Z" fill="white"/>
    <path d="M156.15 172.865C145.134 159.873 136.592 149.872 129.193 138.145C115.951 115.004 127.582 109.21 132.894 103.566C135.428 100.177 138.203 96.5647 141.083 93.0488C142.852 90.3595 145.641 87.9053 148.426 85.822C162.865 76.2642 186.434 59.7138 166.689 32.1438C150.139 9.27945 106.75 14.111 84.421 31.577C66.867 44.577 70.686 74.6522 75.265 86.046C78.769 94.018 83.479 108.196 88.942 117.159C98.106 131.649 110.344 147.064 156.15 172.865Z" fill="#B6D93D"/>
  </g>
  <defs>
    <clipPath id="clip0">
      <rect width="256" height="290" fill="white"/>
    </clipPath>
  </defs>
</svg>
