<svg width="256" height="290" viewBox="0 0 256 290" fill="none" xmlns="http://www.w3.org/2000/svg">
  <g clip-path="url(#clip0)">
    <path d="M127.844 289.088L23.6618 260.166L0.445312 -0.234375H255.555L232.314 260.125L127.844 289.088Z" fill="#0C4B6A"/>
    <path d="M119.163 175.139C105.977 175.139 96.432 166.274 96.432 156.437C96.432 146.601 105.977 137.736 119.163 137.736C132.349 137.736 141.894 146.601 141.894 156.437C141.894 166.274 132.349 175.139 119.163 175.139Z" fill="#D81B60"/>
    <path d="M138.831 140.308C148.17 140.308 156.107 132.144 156.107 121.682C156.107 111.221 148.17 103.056 138.831 103.056C129.493 103.056 121.556 111.221 121.556 121.682C121.556 132.144 129.493 140.308 138.831 140.308Z" fill="#D81B60"/>
    <path d="M100.276 202.882C89.8853 202.882 80.6088 197.365 74.7244 186.682C68.8399 176 71.2242 164.888 77.0836 158.19C82.943 151.491 92.481 148.167 104.147 150.208C115.812 152.249 126.053 159.024 131.222 167.274C136.391 175.524 135.44 184.718 129.496 193.885C123.553 203.052 112.272 207.55 100.276 202.882Z" fill="#F7A900"/>
    <path d="M62.8942 170.516C62.2756 171.679 62.2775 172.905 62.8892 174.194C63.4975 175.474 64.6338 176.065 65.7546 176.063C66.8782 176.062 67.7452 175.468 68.1864 174.284C68.6275 173.099 68.5711 171.905 67.9405 170.658C67.3084 169.411 66.1474 168.818 65.0268 168.82C63.9064 168.822 62.7768 169.416 62.8942 170.516Z" fill="#F4F4F4"/>
  </g>
  <defs>
    <clipPath id="clip0">
      <rect width="256" height="290" fill="white"/>
    </clipPath>
  </defs>
</svg>
