<svg width="256" height="290" viewBox="0 0 256 290" fill="none" xmlns="http://www.w3.org/2000/svg">
  <g clip-path="url(#clip0)">
    <path d="M127.844 289.088L23.6618 260.166L0.445312 -0.234375H255.555L232.314 260.125L127.844 289.088Z" fill="#0072C6"/>
    <path d="M106.291 47.566H62.173C49.197 47.566 39.076 57.858 39.076 71.574V218.584C39.076 232.301 49.197 242.593 62.173 242.593H106.291C119.266 242.593 129.387 232.301 129.387 218.584V71.574C129.387 57.858 119.266 47.566 106.291 47.566Z" fill="#005EB8"/>
    <path d="M106.291 47.566H62.173C49.197 47.566 39.076 57.858 39.076 71.574V218.584C39.076 232.301 49.197 242.593 62.173 242.593H106.291C119.266 242.593 129.387 232.301 129.387 218.584V71.574C129.387 57.858 119.266 47.566 106.291 47.566Z" fill="white"/>
    <path d="M206.712 140.086H171.748C158.772 140.086 148.652 150.378 148.652 164.094V218.584C148.652 232.301 158.772 242.593 171.748 242.593H206.712C219.688 242.593 229.809 232.301 229.809 218.584V164.094C229.809 150.378 219.688 140.086 206.712 140.086Z" fill="#005EB8"/>
    <path d="M206.712 140.086H171.748C158.772 140.086 148.652 150.378 148.652 164.094V218.584C148.652 232.301 158.772 242.593 171.748 242.593H206.712C219.688 242.593 229.809 232.301 229.809 218.584V164.094C229.809 150.378 219.688 140.086 206.712 140.086Z" fill="white"/>
  </g>
  <defs>
    <clipPath id="clip0">
      <rect width="256" height="290" fill="white"/>
    </clipPath>
  </defs>
</svg>
