<svg width="256" height="290" viewBox="0 0 256 290" fill="none" xmlns="http://www.w3.org/2000/svg">
  <g clip-path="url(#clip0)">
    <path d="M127.844 289.088L23.6618 260.166L0.445312 -0.234375H255.555L232.314 260.125L127.844 289.088Z" fill="#E65E3E"/>
    <path d="M87.8954 116.172C87.8954 101.161 100.872 88.968 116.849 88.968C132.827 88.968 145.804 101.161 145.804 116.172C145.804 131.183 132.827 143.376 116.849 143.376C100.872 143.376 87.8954 131.183 87.8954 116.172Z" fill="#A32A22"/>
    <path d="M189.178 133.661C189.178 118.63 202.164 106.452 218.142 106.452C234.119 106.452 247.095 118.63 247.095 133.661C247.095 148.692 234.119 160.87 218.142 160.87C202.164 160.87 189.178 148.692 189.178 133.661Z" fill="#A32A22"/>
    <path d="M25.6406 133.661C25.6406 118.63 38.6265 106.452 54.6043 106.452C70.5822 106.452 83.5581 118.63 83.5581 133.661C83.5581 148.692 70.5822 160.87 54.6043 160.87C38.6265 160.87 25.6406 148.692 25.6406 133.661Z" fill="#A32A22"/>
    <path d="M116.849 185.832C100.872 185.832 87.8954 173.639 87.8954 158.628C87.8954 143.617 100.872 131.424 116.849 131.424C132.827 131.424 145.804 143.617 145.804 158.628C145.804 173.639 132.827 185.832 116.849 185.832Z" fill="#E65E3E"/>
  </g>
  <defs>
    <clipPath id="clip0">
      <rect width="256" height="290" fill="white"/>
    </clipPath>
  </defs>
</svg>
